# xmcd
# 
# Track frame offsets:
#     182
#     12940
#     28455
#     45727
#     62985
#     75890
#     93175
#     107350
#     118877
#     134792
#     156020
#     176862
#     193420
# 
# Disc length: 2828
# 
# Revision: 3
# Processed by: cddbd v1.5.2PL0 Copyright (c) Steve Scherf et al.
# Submitted via: fre:ac v1.0.17
# 
DISCID=b40b0a0d
DTITLE=Hugues Aufray - The very best of Hugues Aufray
DYEAR=1991
DGENRE=Chanson
TTITLE0=La terre est si belle
TTITLE1=Santiano
TTITLE2=Stewball
TTITLE3=Céline
TTITLE4=Hasta Luego
TTITLE5=La fille du Nord
TTITLE6=Les crayons de couleur
TTITLE7=L'épervier
TTITLE8=Le petit âne gris
TTITLE9=N'y pense plus, tout est bien
TTITLE10=Cauchemar psychomoteur
TTITLE11=Dès que le printemps revient
TTITLE12=Adieu monsieur le professeur
EXTD=
EXTT0=
EXTT1=
EXTT2=
EXTT3=
EXTT4=
EXTT5=
EXTT6=
EXTT7=
EXTT8=
EXTT9=
EXTT10=
EXTT11=
EXTT12=
PLAYORDER=
